<?xml version="1.0" encoding="UTF-8"?>
<!DOCTYPE svg PUBLIC "-//W3C//DTD SVG 1.1//EN" "http://www.w3.org/Graphics/SVG/1.1/DTD/svg11.dtd">
<!-- Creator: CorelDRAW -->
<svg xmlns="http://www.w3.org/2000/svg" xml:space="preserve" width="600px" height="600px" version="1.1" style="shape-rendering:geometricPrecision; text-rendering:geometricPrecision; image-rendering:optimizeQuality; fill-rule:evenodd; clip-rule:evenodd"
viewBox="0 0 3009.61 3009.61"
 xmlns:xlink="http://www.w3.org/1999/xlink"
 xmlns:xodm="http://www.corel.com/coreldraw/odm/2003">
 <defs>
  <style type="text/css">
   <![CDATA[
    .fil2 {fill:#201E1E}
    .fil0 {fill:#F0F0F0}
    .fil1 {fill:#E74C3C;fill-rule:nonzero}
   ]]>
  </style>
 </defs>
 <g id="Layer_x0020_1">
  <metadata id="CorelCorpID_0Corel-Layer"/>
  <polygon class="fil0" points="0,0 3009.61,0 3009.61,3009.61 0,3009.61 "/>
  <path class="fil1" d="M1017.61 2128.5l0 -1567.49 555.54 0c109.52,0 199.65,18.67 271.12,56.39 71.1,37.34 123.89,87.61 158.72,150.1 34.84,62.84 52.07,132.51 52.07,208.99 0,67.16 -11.84,122.82 -35.91,166.63 -23.7,43.81 -54.94,79 -94.08,104.86 -38.78,25.85 -81.16,45.24 -126.76,57.82l0 14.71c49.19,2.88 98.03,19.76 146.87,50.64 48.83,30.89 89.41,74.7 122.1,131.43 32.67,56.74 48.83,126.05 48.83,208.28 0,78.65 -17.95,149.39 -54.22,212.59 -36.27,62.85 -92.66,113.12 -169.86,149.75 -77.21,36.99 -177.39,55.3 -300.92,55.3l-573.5 0zm200.03 -176.68l368.07 0c122.1,0 209,-23.7 260.35,-70.38 51.71,-47.04 77.57,-104.5 77.57,-172.73 0,-52.43 -13.28,-100.91 -40.22,-145.08 -26.57,-44.17 -64.28,-79.71 -112.75,-106.3 -48.84,-26.57 -107.02,-39.85 -174.17,-39.85l-378.85 0 0 534.34zm0 -702.77l345.09 0c56.02,0 107.02,-11.13 152.62,-33.39 45.61,-21.9 81.52,-53.14 108.09,-93.37 26.94,-40.57 40.23,-87.62 40.23,-141.48 0,-68.23 -23.71,-125.69 -71.11,-172.73 -47.41,-47.05 -121.73,-70.39 -223.37,-70.39l-351.55 0 0 511.36z"/>
  <rect class="fil2" x="1017.61" y="2297.43" width="974.38" height="176.68"/>
 </g>
</svg>
