<?xml version="1.0" encoding="UTF-8"?>
<!DOCTYPE svg PUBLIC "-//W3C//DTD SVG 1.1//EN" "http://www.w3.org/Graphics/SVG/1.1/DTD/svg11.dtd">
<!-- Creator: CorelDRAW -->
<svg xmlns="http://www.w3.org/2000/svg" xml:space="preserve" width="345px" height="600px" version="1.1" style="shape-rendering:geometricPrecision; text-rendering:geometricPrecision; image-rendering:optimizeQuality; fill-rule:evenodd; clip-rule:evenodd"
viewBox="0 0 388.36 676.35"
 xmlns:xlink="http://www.w3.org/1999/xlink"
 xmlns:xodm="http://www.corel.com/coreldraw/odm/2003">
 <defs>
  <style type="text/css">
   <![CDATA[
    .fil1 {fill:#201E1E}
    .fil0 {fill:#E74C3C;fill-rule:nonzero}
   ]]>
  </style>
 </defs>
 <g id="Layer_x0020_1">
  <metadata id="CorelCorpID_0Corel-Layer"/>
  <path class="fil0" d="M0 554.16l0 -554.16 196.4 0c38.72,0 70.59,6.6 95.85,19.93 25.14,13.21 43.8,30.98 56.12,53.07 12.31,22.22 18.4,46.85 18.4,73.89 0,23.74 -4.19,43.42 -12.69,58.9 -8.38,15.49 -19.43,27.94 -33.27,37.08 -13.7,9.14 -28.69,15.99 -44.81,20.44l0 5.2c17.39,1.02 34.66,6.98 51.93,17.9 17.26,10.92 31.61,26.41 43.16,46.47 11.55,20.06 17.27,44.56 17.27,73.63 0,27.8 -6.35,52.82 -19.17,75.16 -12.83,22.22 -32.76,39.99 -60.05,52.94 -27.3,13.08 -62.72,19.55 -106.39,19.55l-202.75 0zm70.71 -62.46l130.13 0c43.17,0 73.89,-8.38 92.05,-24.89 18.28,-16.63 27.42,-36.94 27.42,-61.06 0,-18.54 -4.7,-35.67 -14.22,-51.29 -9.4,-15.62 -22.73,-28.18 -39.86,-37.58 -17.27,-9.39 -37.84,-14.09 -61.58,-14.09l-133.94 0 0 188.91zm0 -248.45l122.01 0c19.8,0 37.83,-3.94 53.95,-11.81 16.13,-7.74 28.82,-18.79 38.22,-33.01 9.52,-14.34 14.22,-30.98 14.22,-50.02 0,-24.12 -8.38,-44.43 -25.14,-61.06 -16.76,-16.64 -43.04,-24.89 -78.97,-24.89l-124.29 0 0 180.79z"/>
  <rect class="fil1" y="613.88" width="344.48" height="62.46"/>
 </g>
</svg>
